<svg width="31" height="31" viewBox="0 0 31 31" fill="none" xmlns="http://www.w3.org/2000/svg">
<path d="M15.5 0C12.4344 0 9.43763 0.909059 6.88867 2.61222C4.33971 4.31538 2.35303 6.73615 1.17987 9.5684C0.00671589 12.4007 -0.300236 15.5172 0.297835 18.5239C0.895906 21.5306 2.37214 24.2924 4.53985 26.4602C6.70756 28.6279 9.4694 30.1041 12.4761 30.7022C15.4828 31.3002 18.5993 30.9933 21.4316 29.8201C24.2638 28.647 26.6846 26.6603 28.3878 24.1113C30.0909 21.5624 31 18.5656 31 15.5C30.9921 11.3916 29.3566 7.45365 26.4515 4.54855C23.5463 1.64344 19.6084 0.00787813 15.5 0ZM21.4615 16.6923H16.6923V21.4615C16.6923 21.7778 16.5667 22.081 16.3431 22.3046C16.1195 22.5282 15.8162 22.6538 15.5 22.6538C15.1838 22.6538 14.8805 22.5282 14.6569 22.3046C14.4333 22.081 14.3077 21.7778 14.3077 21.4615V16.6923H9.53847C9.22225 16.6923 8.91898 16.5667 8.69538 16.3431C8.47178 16.1195 8.34616 15.8162 8.34616 15.5C8.34616 15.1838 8.47178 14.8805 8.69538 14.6569C8.91898 14.4333 9.22225 14.3077 9.53847 14.3077H14.3077V9.53846C14.3077 9.22224 14.4333 8.91897 14.6569 8.69537C14.8805 8.47177 15.1838 8.34615 15.5 8.34615C15.8162 8.34615 16.1195 8.47177 16.3431 8.69537C16.5667 8.91897 16.6923 9.22224 16.6923 9.53846V14.3077H21.4615C21.7778 14.3077 22.081 14.4333 22.3046 14.6569C22.5282 14.8805 22.6538 15.1838 22.6538 15.5C22.6538 15.8162 22.5282 16.1195 22.3046 16.3431C22.081 16.5667 21.7778 16.6923 21.4615 16.6923Z" fill="white"/>
<path d="M21.4615 16.6923H16.6923V21.4615C16.6923 21.7778 16.5667 22.081 16.3431 22.3046C16.1195 22.5282 15.8162 22.6538 15.5 22.6538C15.1838 22.6538 14.8805 22.5282 14.6569 22.3046C14.4333 22.081 14.3077 21.7778 14.3077 21.4615V16.6923H9.53847C9.22225 16.6923 8.91898 16.5667 8.69538 16.3431C8.47178 16.1195 8.34616 15.8162 8.34616 15.5C8.34616 15.1838 8.47178 14.8805 8.69538 14.6569C8.91898 14.4333 9.22225 14.3077 9.53847 14.3077H14.3077V9.53846C14.3077 9.22224 14.4333 8.91897 14.6569 8.69537C14.8805 8.47177 15.1838 8.34615 15.5 8.34615C15.8162 8.34615 16.1195 8.47177 16.3431 8.69537C16.5667 8.91897 16.6923 9.22224 16.6923 9.53846V14.3077H21.4615C21.7778 14.3077 22.081 14.4333 22.3046 14.6569C22.5282 14.8805 22.6538 15.1838 22.6538 15.5C22.6538 15.8162 22.5282 16.1195 22.3046 16.3431C22.081 16.5667 21.7778 16.6923 21.4615 16.6923Z" fill="#303030"/>
</svg>
