<svg width="17" height="17" viewBox="0 0 17 17" fill="none" xmlns="http://www.w3.org/2000/svg">
<path d="M16.5753 1.7974C16.4509 1.74486 16.3142 1.73196 16.1827 1.76033C16.0512 1.78869 15.9307 1.85705 15.8365 1.95677L14.622 3.22292L13.917 2.48802C12.7766 1.29972 11.3238 0.490618 9.74236 0.163004C8.16089 -0.16461 6.52175 0.0039777 5.03218 0.647453C3.54261 1.29093 2.26949 2.3804 1.37378 3.77812C0.478075 5.17584 0 6.81905 0 8.5C0 10.181 0.478075 11.8242 1.37378 13.2219C2.26949 14.6196 3.54261 15.7091 5.03218 16.3525C6.52175 16.996 8.16089 17.1646 9.74236 16.837C11.3238 16.5094 12.7766 15.7003 13.917 14.512C14.0441 14.3792 14.1155 14.1993 14.1155 14.0117C14.1155 13.8242 14.0441 13.6442 13.917 13.5115C13.8545 13.4448 13.7799 13.3918 13.6975 13.3557C13.6151 13.3195 13.5266 13.3009 13.4372 13.3009C13.3478 13.3009 13.2593 13.3195 13.1769 13.3557C13.0945 13.3918 13.0198 13.4448 12.9573 13.5115C12.0068 14.5013 10.7961 15.1751 9.47837 15.4478C8.16059 15.7205 6.79485 15.5797 5.55377 15.0434C4.31269 14.507 3.252 13.5991 2.50575 12.4345C1.75951 11.2698 1.36121 9.90062 1.36121 8.5C1.36121 7.09939 1.75951 5.73021 2.50575 4.56553C3.252 3.40085 4.31269 2.49296 5.55377 1.95661C6.79485 1.42026 8.16059 1.27952 9.47837 1.5522C10.7961 1.82487 12.0068 2.49871 12.9573 3.48854L13.6622 4.22344L12.4393 5.49844C12.3457 5.59798 12.2823 5.72411 12.2572 5.86101C12.232 5.99792 12.2462 6.13951 12.2978 6.26807C12.3495 6.39663 12.4364 6.50643 12.5477 6.58373C12.659 6.66102 12.7896 6.70238 12.9234 6.70261H16.3206C16.5008 6.70261 16.6736 6.62798 16.801 6.49514C16.9284 6.3623 17 6.18213 17 5.99427V2.45261C16.9975 2.31229 16.9561 2.17573 16.8807 2.05945C16.8054 1.94316 16.6993 1.85214 16.5753 1.7974Z" fill="#303030"/>
</svg>
